<svg width="259" height="80" viewBox="0 0 259 80" fill="none" xmlns="http://www.w3.org/2000/svg">
<path d="M29.4 12.9997V13.3997C28.6 13.5997 28.1 13.8997 27.8 14.1997C27.5 14.4997 27.4 14.9997 27.4 15.6997V19.0997C27.4 19.3997 27.4 19.6997 27.4 19.9997C27.4 20.2997 27.4 20.6997 27.5 20.9997C26.4 21.8997 25 22.5997 23.6 23.0997C22.1 23.5997 20.5 23.7997 18.6 23.7997C14.9 23.7997 12 22.7997 9.8 20.8997C7.6 18.9997 6.5 16.3997 6.5 13.1997C6.5 10.0997 7.6 7.49971 9.9 5.59971C12.2 3.69971 15.1 2.69971 18.8 2.69971C20.4 2.69971 22 2.89971 23.5 3.29971C25 3.69971 26.4 4.29971 27.7 5.09971L25.9 10.0997L25.5 9.99971C25.2 7.89971 24.5 6.29971 23.4 5.29971C22.4 4.29971 20.9 3.69971 19.2 3.69971C16.9 3.69971 15.2 4.49971 14 6.09971C12.9 7.69971 12.3 10.0997 12.3 13.2997C12.3 16.5997 12.8 18.9997 13.8 20.5997C14.8 22.1997 16.3 22.8997 18.4 22.8997C19.9 22.8997 20.9 22.4997 21.5 21.7997C22.1 21.0997 22.4 19.6997 22.4 17.6997C22.4 15.9997 22.2 14.8997 21.7 14.3997C21.2 13.8997 20.3 13.5997 18.8 13.4997V12.9997C19.7 12.9997 20.5 13.0997 21.4 13.0997C22.3 13.0997 23.2 13.0997 24.1 13.0997C24.9 13.0997 25.8 13.0997 26.7 13.0997C27.5 12.9997 28.4 12.9997 29.4 12.9997Z" fill="white"/>
<path d="M31.5999 11.2998C31.5999 9.9998 31.4999 9.1998 31.2999 8.7998C31.0999 8.3998 30.6999 8.1998 30.1999 8.1998V7.7998C31.1999 7.6998 32.0999 7.4998 33.0999 7.2998C33.9999 7.1998 34.9999 6.9998 35.8999 6.7998V10.1998C36.3999 9.0998 36.8999 8.1998 37.4999 7.6998C38.0999 7.0998 38.7999 6.8998 39.4999 6.8998C39.6999 6.8998 39.7999 6.8998 39.9999 6.8998C40.0999 6.8998 40.1999 6.8998 40.2999 6.8998L38.9999 12.6998C38.7999 12.1998 38.5999 11.7998 38.3999 11.5998C38.1999 11.3998 37.8999 11.1998 37.5999 11.1998C36.9999 11.1998 36.5999 11.6998 36.2999 12.7998C35.9999 13.8998 35.8999 15.5998 35.8999 18.0998C35.8999 19.7998 35.9999 20.9998 36.1999 21.6998C36.3999 22.3998 36.7999 22.8998 37.2999 23.0998V23.3998C36.6999 23.3998 36.0999 23.2998 35.4999 23.2998C34.8999 23.2998 34.2999 23.2998 33.6999 23.2998C33.0999 23.2998 32.4999 23.2998 31.7999 23.2998C31.1999 23.2998 30.4999 23.2998 29.8999 23.3998V22.9998C30.4999 22.6998 30.8999 22.2998 31.0999 21.4998C31.2999 20.7998 31.3999 19.1998 31.3999 16.8998V15.9998V11.2998H31.5999Z" fill="white"/>
<path d="M49.5998 11.5997C49.5998 10.2997 49.3998 9.39971 48.9998 8.69971C48.5998 7.99971 47.9998 7.69971 47.2998 7.69971C46.4998 7.69971 45.7998 8.09971 45.1998 8.99971C44.5998 9.89971 43.9998 11.1997 43.3998 12.9997H42.9998L41.9998 8.19971C42.9998 7.69971 43.8998 7.29971 44.9998 7.09971C45.9998 6.79971 47.0998 6.69971 48.0998 6.69971C50.1998 6.69971 51.7998 7.19971 52.6998 8.29971C53.5998 9.39971 54.0998 11.2997 54.0998 13.8997V19.8997C54.0998 20.6997 54.1998 21.1997 54.2998 21.5997C54.3998 21.9997 54.6998 22.3997 55.0998 22.6997V23.0997C54.5998 23.0997 54.1998 23.0997 53.7998 23.0997C53.4998 23.0997 53.0998 23.0997 52.7998 23.0997C52.4998 23.0997 52.2998 23.0997 51.8998 23.0997C51.5998 23.0997 51.0998 23.0997 50.3998 23.1997L49.9998 21.2997C49.4998 22.1997 48.9998 22.7997 48.2998 23.1997C47.5998 23.5997 46.8998 23.7997 45.8998 23.7997C44.3998 23.7997 43.1998 23.2997 42.1998 22.3997C41.2998 21.3997 40.7998 20.1997 40.7998 18.6997C40.7998 16.9997 41.4998 15.5997 42.7998 14.6997C44.0998 13.7997 45.9998 13.2997 48.5998 13.2997C48.8998 13.2997 49.0998 13.2997 49.1998 13.2997C49.2998 13.2997 49.4998 13.2997 49.5998 13.2997V11.5997ZM49.5998 14.2997C48.1998 14.2997 47.0998 14.6997 46.4998 15.4997C45.7998 16.2997 45.4998 17.4997 45.4998 19.0997C45.4998 20.0997 45.6998 20.8997 45.9998 21.4997C46.2998 22.0997 46.7998 22.3997 47.3998 22.3997C48.0998 22.3997 48.6998 21.8997 49.0998 20.9997C49.4998 19.9997 49.6998 18.6997 49.6998 16.9997V14.2997H49.5998Z" fill="white"/>
<path d="M61.5 22.1998V22.8998C61.5 25.3998 61.6 26.8998 61.9 27.5998C62.2 28.2998 62.7 28.6998 63.5 28.8998V29.1998C62.8 29.1998 62.2 29.0998 61.5 29.0998C60.8 29.0998 60.2 29.0998 59.5 29.0998C58.8 29.0998 58.2 29.0998 57.5 29.0998C56.8 29.0998 56.2 29.0998 55.5 29.1998V28.9998C56.1 28.7998 56.5 28.2998 56.7 27.5998C56.9 26.8998 57 25.2998 57 22.9998V21.9998V11.6998C57 10.3998 56.9 9.5998 56.7 9.1998C56.5 8.7998 56.1 8.5998 55.6 8.5998V8.2998C56.6 8.0998 57.5 7.9998 58.5 7.7998C59.4 7.5998 60.4 7.3998 61.3 7.1998V9.5998C61.7 8.6998 62.3 7.9998 63 7.4998C63.7 6.9998 64.6 6.7998 65.5 6.7998C67.3 6.7998 68.9 7.5998 70.1 9.0998C71.3 10.5998 71.9 12.5998 71.9 15.0998C71.9 17.4998 71.3 19.5998 70.1 21.1998C68.9 22.7998 67.4 23.5998 65.6 23.5998C64.7 23.5998 63.9 23.3998 63.2 22.8998C62.5 22.4998 61.9 21.7998 61.4 20.8998V22.1998H61.5ZM64.5 21.8998C65.4 21.8998 66.2 21.2998 66.7 20.1998C67.2 19.0998 67.5 17.4998 67.5 15.4998C67.5 13.0998 67.2 11.2998 66.7 10.0998C66.2 8.8998 65.5 8.2998 64.5 8.2998C63.5 8.2998 62.8 8.8998 62.3 10.0998C61.8 11.2998 61.5 12.9998 61.5 15.1998C61.5 17.3998 61.8 19.0998 62.3 20.2998C62.8 21.3998 63.5 21.8998 64.5 21.8998Z" fill="white"/>
<path d="M74.6 5.2998C74.6 3.9998 74.5 3.1998 74.3 2.7998C74.1 2.3998 73.7 2.1998 73.2 2.1998V1.8998C74.2 1.6998 75.1 1.5998 76.1 1.3998C77 1.1998 78 0.999805 79 0.799805V9.5998C79.4 8.5998 79.9 7.8998 80.6 7.4998C81.2 6.9998 82 6.7998 82.9 6.7998C84.6 6.7998 85.8 7.3998 86.6 8.5998C87.4 9.7998 87.8 11.6998 87.8 14.2998V15.9998C87.8 18.7998 87.9 20.5998 88.1 21.3998C88.3 22.1998 88.7 22.7998 89.3 22.8998V23.1998C88.7 23.1998 88.1 23.0998 87.5 23.0998C86.9 23.0998 86.3 23.0998 85.7 23.0998C85.1 23.0998 84.5 23.0998 83.9 23.0998C83.3 23.0998 82.7 23.0998 82.1 23.1998V22.8998C82.6 22.6998 82.9 22.1998 83 21.4998C83.2 20.7998 83.3 19.5998 83.3 17.6998V15.9998V14.5998C83.3 12.3998 83.1 10.8998 82.8 9.9998C82.5 9.0998 82 8.5998 81.3 8.5998C80.5 8.5998 80 9.0998 79.5 10.1998C79.1 11.2998 78.9 12.6998 78.9 14.5998V15.9998C78.9 18.8998 79 20.6998 79.2 21.4998C79.4 22.2998 79.7 22.7998 80.2 22.9998V23.2998C79.7 23.2998 79.1 23.1998 78.5 23.1998C77.9 23.1998 77.4 23.1998 76.7 23.1998C76.1 23.1998 75.5 23.1998 74.9 23.1998C74.3 23.1998 73.6 23.1998 73 23.2998V22.9998C73.6 22.6998 74 22.2998 74.2 21.4998C74.4 20.7998 74.5 19.1998 74.5 16.8998V15.9998V5.2998H74.6Z" fill="white"/>
<path d="M90.9999 11.2998C90.9999 9.9998 90.8999 9.1998 90.6999 8.7998C90.4999 8.3998 90.0999 8.1998 89.5999 8.1998V7.7998C90.4999 7.6998 91.4999 7.4998 92.3999 7.2998C93.3999 7.0998 94.2999 6.8998 95.2999 6.6998V16.8998C95.2999 19.2998 95.3999 20.7998 95.5999 21.5998C95.7999 22.2998 96.1999 22.7998 96.6999 22.9998V23.2998C96.0999 23.2998 95.4999 23.1998 94.8999 23.1998C94.2999 23.1998 93.6999 23.1998 93.0999 23.1998C92.4999 23.1998 91.8999 23.1998 91.2999 23.1998C90.6999 23.1998 89.9999 23.1998 89.3999 23.2998V22.9998C89.9999 22.6998 90.3999 22.2998 90.5999 21.4998C90.7999 20.7998 90.8999 19.1998 90.8999 16.8998V15.9998V11.2998H90.9999ZM90.9999 3.1998C90.9999 2.4998 91.1999 1.8998 91.5999 1.4998C91.9999 0.999805 92.4999 0.799805 93.0999 0.799805C93.6999 0.799805 94.1999 0.999805 94.6999 1.4998C95.0999 1.9998 95.3999 2.4998 95.3999 3.1998C95.3999 3.8998 95.1999 4.4998 94.6999 4.8998C94.2999 5.3998 93.6999 5.5998 93.0999 5.5998C92.4999 5.5998 91.9999 5.3998 91.5999 4.8998C91.1999 4.4998 90.9999 3.8998 90.9999 3.1998Z" fill="white"/>
<path d="M108.9 13.3998C108.5 11.3998 108.1 9.8998 107.6 9.0998C107.1 8.1998 106.4 7.7998 105.6 7.7998C104.6 7.7998 103.8 8.4998 103.1 9.8998C102.4 11.2998 102.1 12.9998 102.1 15.1998C102.1 17.4998 102.4 19.1998 103.1 20.3998C103.7 21.5998 104.7 22.0998 105.9 22.0998C106.7 22.0998 107.4 21.7998 108 21.1998C108.6 20.5998 109.2 19.6998 109.6 18.5998L110.4 18.9998C109.8 20.5998 109.1 21.6998 108.1 22.5998C107.1 23.3998 105.9 23.7998 104.6 23.7998C102.6 23.7998 100.9 22.9998 99.6001 21.2998C98.3001 19.5998 97.6001 17.5998 97.6001 15.0998C97.6001 12.5998 98.3001 10.5998 99.7001 9.0998C101.1 7.5998 102.9 6.7998 105.1 6.7998C106.1 6.7998 107.1 6.9998 107.9 7.2998C108.8 7.5998 109.6 8.0998 110.4 8.6998L109.3 13.4998L108.9 13.3998Z" fill="white"/>
<path d="M119.7 23.2997V22.8997C120.5 22.6997 121.1 22.2997 121.4 21.4997C121.7 20.6997 121.9 18.9997 121.9 16.1997V5.99971C121.9 5.29971 121.8 4.79971 121.5 4.39971C121.2 3.99971 120.8 3.79971 120.1 3.59971V3.19971C120.1 3.19971 120.2 3.19971 120.3 3.19971C122.4 3.19971 124 3.29971 125.1 3.29971H137.8L139.5 8.39971L139 8.49971C137.7 7.09971 136.3 5.99971 134.6 5.29971C133 4.59971 131.1 4.29971 128.9 4.29971C128.4 4.29971 128 4.29971 127.8 4.29971C127.6 4.29971 127.3 4.29971 127.1 4.39971V12.0997C127.4 12.0997 127.8 12.0997 128.1 12.0997C128.4 12.0997 128.7 12.0997 129.1 12.0997C130.9 12.0997 132.4 11.7997 133.6 11.1997C134.8 10.5997 135.5 9.79971 135.9 8.79971H136.3V16.3997H135.9C135.5 15.2997 134.8 14.4997 133.6 13.8997C132.4 13.2997 130.9 12.9997 129.1 12.9997C128.6 12.9997 128.2 12.9997 127.9 12.9997C127.6 12.9997 127.4 12.9997 127.2 12.9997V15.7997C127.2 18.5997 127.4 20.2997 127.9 20.9997C128.4 21.6997 129.3 21.9997 130.8 21.9997C132.6 21.9997 134.3 21.4997 135.9 20.5997C137.5 19.6997 139 18.2997 140.4 16.3997L140.9 16.5997L138.9 23.0997H126.2C126 23.0997 125.6 23.0997 125.2 23.0997C124.7 23.0997 124.4 23.0997 124.2 23.0997C123.4 23.0997 122.6 23.0997 121.9 23.0997C121.2 23.1997 120.5 23.1997 119.7 23.2997Z" fill="white"/>
<path d="M142.9 11.2997C142.9 9.99971 142.8 9.19971 142.6 8.79971C142.4 8.39971 142 8.19971 141.5 8.19971V7.79971C142.5 7.69971 143.4 7.49971 144.4 7.29971C145.4 7.09971 146.3 6.89971 147.2 6.69971V10.0997C147.7 8.99971 148.2 8.09971 148.8 7.59971C149.4 6.99971 150.1 6.79971 150.8 6.79971C151 6.79971 151.1 6.79971 151.3 6.79971C151.4 6.79971 151.5 6.79971 151.6 6.79971L150.2 12.5997C150 12.0997 149.8 11.6997 149.6 11.4997C149.4 11.1997 149.1 11.0997 148.8 11.0997C148.2 11.0997 147.8 11.5997 147.5 12.6997C147.2 13.7997 147.1 15.4997 147.1 17.9997C147.1 19.6997 147.2 20.8997 147.4 21.5997C147.6 22.2997 148 22.7997 148.5 22.9997V23.2997C147.9 23.2997 147.3 23.1997 146.7 23.1997C146.1 23.1997 145.5 23.1997 144.9 23.1997C144.3 23.1997 143.7 23.1997 143 23.1997C142.4 23.1997 141.7 23.1997 141.1 23.2997V22.9997C141.7 22.6997 142.1 22.2997 142.3 21.4997C142.5 20.7997 142.6 19.1997 142.6 16.8997V15.9997V11.2997H142.9Z" fill="white"/>
<path d="M160.9 11.5997C160.9 10.2997 160.7 9.39971 160.3 8.69971C159.9 7.99971 159.3 7.69971 158.6 7.69971C157.8 7.69971 157.1 8.09971 156.5 8.99971C155.9 9.89971 155.3 11.1997 154.7 12.9997H154.2L153.2 8.19971C154.2 7.69971 155.1 7.29971 156.2 7.09971C157.2 6.79971 158.3 6.69971 159.3 6.69971C161.4 6.69971 163 7.19971 163.9 8.29971C164.8 9.39971 165.3 11.2997 165.3 13.8997V19.8997C165.3 20.6997 165.4 21.1997 165.5 21.5997C165.7 21.9997 165.9 22.3997 166.3 22.6997V23.0997C165.8 23.0997 165.4 23.0997 165 23.0997C164.7 23.0997 164.3 23.0997 164 23.0997C163.7 23.0997 163.5 23.0997 163.1 23.0997C162.8 23.0997 162.3 23.0997 161.6 23.1997L161.2 21.2997C160.7 22.1997 160.2 22.7997 159.5 23.1997C158.8 23.5997 158.1 23.7997 157.1 23.7997C155.6 23.7997 154.4 23.2997 153.4 22.3997C152.5 21.3997 152 20.1997 152 18.6997C152 16.9997 152.7 15.5997 154 14.6997C155.3 13.7997 157.2 13.2997 159.8 13.2997C160.1 13.2997 160.3 13.2997 160.4 13.2997C160.5 13.2997 160.7 13.2997 160.8 13.2997V11.5997H160.9ZM160.9 14.2997C159.5 14.2997 158.4 14.6997 157.8 15.4997C157.1 16.2997 156.8 17.4997 156.8 19.0997C156.8 20.0997 157 20.8997 157.3 21.4997C157.6 22.0997 158.1 22.3997 158.7 22.3997C159.4 22.3997 160 21.8997 160.4 20.9997C160.8 19.9997 161 18.6997 161 16.9997V14.2997H160.9Z" fill="white"/>
<path d="M54.8002 50.5997C54.8002 52.1997 54.8002 53.4997 54.9002 54.4997C55.0002 55.4997 55.1002 56.1997 55.3002 56.6997C55.7002 57.5997 56.2002 58.2997 57.0002 58.7997C57.8002 59.2997 58.8002 59.4997 59.9002 59.4997C61.8002 59.4997 63.2002 58.8997 64.2002 57.7997C65.2002 56.6997 65.7002 55.0997 65.7002 52.9997V50.2997C65.7002 47.2997 65.5002 45.2997 65.0002 44.2997C64.6002 43.2997 63.8002 42.6997 62.6002 42.2997V41.8997C63.3002 41.8997 64.0002 41.8997 64.5002 41.9997C65.1002 41.9997 65.5002 41.9997 65.9002 41.9997C66.4002 41.9997 67.0002 41.9997 67.7002 41.9997C68.3002 41.9997 69.0002 41.9997 69.7002 41.8997V42.1997C68.5002 42.5997 67.7002 43.2997 67.3002 44.1997C66.9002 45.1997 66.6002 47.1997 66.6002 50.1997V52.6997C66.6002 55.3997 65.9002 57.3997 64.6002 58.6997C63.3002 59.9997 61.2002 60.5997 58.4002 60.5997C56.9002 60.5997 55.5002 60.3997 54.4002 60.0997C53.3002 59.7997 52.4002 59.2997 51.7002 58.5997C51.0002 57.9997 50.6002 57.2997 50.3002 56.3997C50.0002 55.4997 49.9002 54.1997 49.9002 52.5997C49.9002 51.8997 49.9002 51.0997 49.9002 50.1997C49.9002 49.2997 49.9002 48.6997 49.9002 48.3997V44.2997C49.9002 43.6997 49.8002 43.1997 49.5002 42.7997C49.2002 42.4997 48.8002 42.1997 48.2002 42.0997V41.6997C48.8002 41.6997 49.4002 41.7997 50.1002 41.7997C50.7002 41.7997 51.4002 41.7997 52.1002 41.7997C52.8002 41.7997 53.5002 41.7997 54.2002 41.7997C54.9002 41.7997 55.6002 41.7997 56.3002 41.6997V42.0997C55.7002 42.1997 55.3002 42.3997 55.0002 42.7997C54.7002 43.0997 54.6002 43.5997 54.6002 44.2997V50.5997H54.8002Z" fill="white"/>
<path d="M74.4 47.7998C74.8 46.8998 75.3 46.2998 75.9 45.8998C76.5 45.4998 77.2 45.2998 78 45.2998C79.5 45.2998 80.6 45.8998 81.3 46.9998C82 48.0998 82.4 49.7998 82.4 52.1998V53.7998C82.4 56.2998 82.5 57.9998 82.7 58.6998C82.9 59.3998 83.3 59.8998 83.8 60.0998V60.3998C83.3 60.3998 82.7 60.3998 82.2 60.2998C81.7 60.2998 81.1 60.2998 80.6 60.2998C80.1 60.2998 79.5 60.2998 79 60.2998C78.5 60.2998 77.9 60.2998 77.4 60.3998V60.0998C77.8 59.8998 78.1 59.4998 78.3 58.8998C78.5 58.2998 78.5 57.0998 78.5 55.3998V53.7998V52.4998C78.5 50.4998 78.4 49.0998 78.1 48.2998C77.8 47.4998 77.4 46.9998 76.7 46.9998C76 46.9998 75.5 47.4998 75.1 48.3998C74.7 49.3998 74.5 50.6998 74.5 52.3998V53.6998C74.5 56.2998 74.6 57.9998 74.7 58.6998C74.9 59.3998 75.2 59.7998 75.6 59.9998V60.2998C75.1 60.2998 74.6 60.2998 74.1 60.1998C73.6 60.1998 73.1 60.1998 72.5 60.1998C72 60.1998 71.4 60.1998 70.8 60.1998C70.2 60.1998 69.6 60.1998 69 60.2998V59.9998C69.5 59.7998 69.9 59.2998 70.1 58.6998C70.3 57.9998 70.4 56.5998 70.4 54.4998V53.6998V49.7998C70.4 48.5998 70.3 47.7998 70.1 47.4998C69.9 47.1998 69.6 46.9998 69.1 46.8998V46.5998C70 46.4998 70.9 46.2998 71.8 46.0998C72.7 45.8998 73.5 45.6998 74.3 45.4998V47.7998H74.4Z" fill="white"/>
<path d="M85.4004 49.3997C85.4004 48.1997 85.3004 47.4997 85.1004 47.0997C84.9004 46.7997 84.6004 46.5997 84.1004 46.4997V46.1997C84.9004 46.0997 85.8004 45.8997 86.7004 45.7997C87.6004 45.5997 88.5004 45.4997 89.4004 45.2997V54.5997C89.4004 56.7997 89.5004 58.1997 89.7004 58.7997C89.9004 59.4997 90.2004 59.8997 90.7004 59.9997V60.2997C90.2004 60.2997 89.6004 60.2997 89.1004 60.1997C88.6004 60.1997 88.0004 60.1997 87.4004 60.1997C86.9004 60.1997 86.3004 60.1997 85.7004 60.1997C85.1004 60.1997 84.5004 60.1997 83.9004 60.2997V59.9997C84.4004 59.7997 84.8004 59.2997 85.0004 58.6997C85.2004 57.9997 85.3004 56.5997 85.3004 54.4997V53.6997V49.3997H85.4004ZM85.4004 41.8997C85.4004 41.2997 85.6004 40.7997 86.0004 40.2997C86.4004 39.8997 86.8004 39.6997 87.4004 39.6997C88.0004 39.6997 88.4004 39.8997 88.8004 40.2997C89.2004 40.6997 89.4004 41.1997 89.4004 41.8997C89.4004 42.4997 89.2004 43.0997 88.8004 43.4997C88.4004 43.8997 87.9004 44.1997 87.4004 44.1997C86.8004 44.1997 86.4004 43.9997 86.0004 43.5997C85.6004 43.0997 85.4004 42.5997 85.4004 41.8997Z" fill="white"/>
<path d="M100 49.1999C100.1 48.8999 100.2 48.5999 100.3 48.2999C100.4 47.9999 100.4 47.7999 100.4 47.4999C100.4 46.9999 100.3 46.5999 100.1 46.2999C99.9002 45.9999 99.5002 45.7999 99.0002 45.6999V45.3999C99.4002 45.3999 99.9002 45.3999 100.3 45.4999C100.7 45.4999 101.2 45.4999 101.6 45.4999C102 45.4999 102.5 45.4999 102.9 45.4999C103.3 45.4999 103.8 45.4999 104.2 45.3999V45.6999C103.7 45.9999 103.2 46.3999 102.6 47.0999C102.1 47.7999 101.6 48.5999 101.2 49.5999L96.7002 60.5999H96.5002L92.0002 49.3999C92.0002 49.3999 92.0002 49.2999 91.9002 49.1999C91.0002 46.9999 90.3002 45.8999 89.7002 45.7999V45.4999C90.2002 45.4999 90.8002 45.4999 91.4002 45.5999C92.0002 45.5999 92.5002 45.5999 93.1002 45.5999C93.7002 45.5999 94.3002 45.5999 94.9002 45.5999C95.5002 45.5999 96.1002 45.5999 96.7002 45.4999V45.7999C96.3002 45.9999 96.0002 46.1999 95.8002 46.4999C95.6002 46.7999 95.5002 47.0999 95.5002 47.4999C95.5002 47.6999 95.5002 47.9999 95.6002 48.2999C95.7002 48.5999 95.8002 48.8999 95.9002 49.2999L98.0002 54.5999L100 49.1999Z" fill="white"/>
<path d="M107.6 51.3998V52.1998C107.6 54.4998 107.9 56.2998 108.6 57.4998C109.2 58.6998 110.2 59.1998 111.5 59.1998C112.4 59.1998 113.2 58.7998 113.9 57.8998C114.6 56.9998 115.1 55.7998 115.4 54.1998L116.1 54.6998C115.8 56.5998 115.1 58.0998 114 59.1998C112.9 60.2998 111.5 60.7998 109.9 60.7998C108 60.7998 106.5 60.0998 105.3 58.5998C104.1 57.0998 103.5 55.1998 103.5 52.8998C103.5 50.6998 104.1 48.8998 105.4 47.4998C106.7 46.0998 108.2 45.2998 110.1 45.2998C111.9 45.2998 113.4 45.8998 114.5 46.9998C115.6 48.0998 116.2 49.5998 116.2 51.4998H107.6V51.3998ZM107.7 50.1998H111.9C111.9 48.8998 111.7 47.8998 111.4 47.0998C111.1 46.3998 110.6 45.9998 110 45.9998C109.4 45.9998 108.8 46.3998 108.4 47.0998C108 47.8998 107.7 48.8998 107.7 50.1998Z" fill="white"/>
<path d="M118.8 49.3998C118.8 48.1998 118.7 47.4998 118.5 47.0998C118.3 46.7998 118 46.5998 117.5 46.4998V46.1998C118.4 46.0998 119.3 45.8998 120.1 45.7998C121 45.5998 121.8 45.4998 122.7 45.2998V48.3998C123.1 47.3998 123.6 46.5998 124.2 46.0998C124.8 45.5998 125.4 45.2998 126.1 45.2998C126.3 45.2998 126.4 45.2998 126.5 45.2998C126.6 45.2998 126.7 45.2998 126.8 45.2998L125.6 50.5998C125.5 50.0998 125.3 49.7998 125.1 49.5998C124.9 49.3998 124.6 49.2998 124.4 49.2998C123.9 49.2998 123.5 49.7998 123.2 50.7998C123 51.7998 122.8 53.3998 122.8 55.5998C122.8 57.0998 122.9 58.1998 123.1 58.8998C123.3 59.5998 123.6 59.9998 124.1 60.0998V60.3998C123.6 60.3998 123 60.3998 122.5 60.2998C122 60.2998 121.4 60.2998 120.8 60.2998C120.2 60.2998 119.7 60.2998 119.1 60.2998C118.5 60.2998 117.9 60.2998 117.3 60.3998V59.9998C117.8 59.7998 118.2 59.2998 118.4 58.6998C118.6 57.9998 118.7 56.5998 118.7 54.4998V53.6998V49.3998H118.8Z" fill="white"/>
<path d="M127 59.0998L128.2 54.3998L128.6 54.5998C128.8 56.1998 129.2 57.4998 129.9 58.3998C130.5 59.2998 131.3 59.7998 132.2 59.7998C132.9 59.7998 133.5 59.4998 133.9 58.9998C134.4 58.4998 134.6 57.8998 134.6 57.0998C134.6 56.3998 134.5 55.8998 134.2 55.4998C133.9 55.0998 133.2 54.6998 132 54.2998C130.2 53.6998 129.1 53.0998 128.6 52.4998C128.1 51.8998 127.9 51.0998 127.9 49.9998C127.9 48.5998 128.4 47.4998 129.4 46.5998C130.4 45.6998 131.7 45.2998 133.4 45.2998C134.1 45.2998 134.9 45.3998 135.7 45.5998C136.5 45.7998 137.3 46.0998 138.1 46.5998L137.1 50.3998L136.7 50.2998C136.6 48.8998 136.3 47.8998 135.8 47.1998C135.3 46.4998 134.6 46.0998 133.8 46.0998C133.2 46.0998 132.7 46.2998 132.4 46.6998C132 47.0998 131.8 47.6998 131.8 48.2998C131.8 49.0998 132 49.6998 132.3 49.9998C132.6 50.3998 133.3 50.6998 134.4 50.9998C136.1 51.4998 137.2 51.9998 137.7 52.6998C138.2 53.2998 138.5 54.2998 138.5 55.4998C138.5 57.0998 137.9 58.2998 136.8 59.2998C135.7 60.2998 134.2 60.6998 132.4 60.6998C131.5 60.6998 130.6 60.5998 129.7 60.2998C128.7 59.9998 127.8 59.5998 127 59.0998Z" fill="white"/>
<path d="M140.8 49.3997C140.8 48.1997 140.7 47.4997 140.5 47.0997C140.3 46.7997 140 46.5997 139.5 46.4997V46.1997C140.3 46.0997 141.2 45.8997 142.1 45.7997C143 45.5997 143.9 45.4997 144.8 45.2997V54.5997C144.8 56.7997 144.9 58.1997 145.1 58.7997C145.3 59.4997 145.6 59.8997 146.1 59.9997V60.2997C145.6 60.2997 145 60.2997 144.5 60.1997C144 60.1997 143.4 60.1997 142.8 60.1997C142.3 60.1997 141.7 60.1997 141.1 60.1997C140.5 60.1997 139.9 60.1997 139.3 60.2997V59.9997C139.8 59.7997 140.2 59.2997 140.4 58.6997C140.6 57.9997 140.7 56.5997 140.7 54.4997V53.6997V49.3997H140.8ZM140.8 41.8997C140.8 41.2997 141 40.7997 141.4 40.2997C141.8 39.8997 142.2 39.6997 142.8 39.6997C143.4 39.6997 143.8 39.8997 144.2 40.2997C144.6 40.6997 144.8 41.1997 144.8 41.8997C144.8 42.4997 144.6 43.0997 144.2 43.4997C143.8 43.8997 143.3 44.1997 142.8 44.1997C142.3 44.1997 141.8 43.9997 141.4 43.5997C140.9 43.0997 140.8 42.5997 140.8 41.8997Z" fill="white"/>
<path d="M152 53.3998C152 55.8998 152.1 57.4998 152.4 58.3998C152.7 59.1998 153.2 59.7998 153.9 59.9998V60.2998C152.8 60.2998 151.2 60.2998 149 60.1998C148.6 59.9998 148.3 59.5998 148.2 59.1998C148 58.6998 148 57.8998 148 56.6998C148 56.3998 148 55.8998 148 55.2998C148 54.6998 148 54.2998 148 54.0998V46.9998H146.4L146.6 46.1998C147.8 45.5998 148.8 44.8998 149.6 44.0998C150.4 43.2998 151.1 42.3998 151.7 41.2998H152.1C152.1 41.6998 152 42.0998 152 42.5998C152 43.0998 152 43.7998 152 44.4998V45.7998H154L153.7 46.9998H152V53.3998Z" fill="white"/>
<path d="M163.4 49.1999C163.5 48.7999 163.6 48.3999 163.7 48.1999C163.8 47.8999 163.8 47.6999 163.8 47.4999C163.8 46.9999 163.7 46.6999 163.5 46.3999C163.3 46.0999 162.9 45.8999 162.4 45.7999V45.4999C162.8 45.4999 163.3 45.4999 163.7 45.5999C164.1 45.5999 164.6 45.5999 165 45.5999C165.4 45.5999 165.9 45.5999 166.3 45.5999C166.7 45.5999 167.2 45.5999 167.6 45.4999V45.7999C167 46.1999 166.4 46.6999 165.9 47.3999C165.4 48.0999 165 48.7999 164.7 49.6999L161.6 57.9999C160.5 60.9999 159.5 63.0999 158.6 64.0999C157.8 65.0999 156.8 65.6999 155.6 65.6999C155.5 65.6999 155.3 65.6999 155.2 65.6999C155.1 65.6999 155 65.5999 154.8 65.5999L156.2 60.5999L156.6 60.6999C156.7 61.2999 156.9 61.6999 157 61.8999C157.2 62.0999 157.4 62.1999 157.8 62.1999C158.2 62.1999 158.5 61.9999 158.8 61.6999C159.1 61.3999 159.2 60.8999 159.2 60.3999C159.2 60.1999 159.2 59.8999 159.1 59.6999C159 59.4999 158.9 59.0999 158.8 58.6999L154.8 47.9999C154.5 47.2999 154.2 46.6999 154 46.2999C153.7 45.8999 153.4 45.6999 153.1 45.6999V45.3999C153.6 45.3999 154.2 45.3999 154.8 45.4999C155.4 45.4999 155.9 45.4999 156.5 45.4999C157.1 45.4999 157.7 45.4999 158.3 45.4999C158.9 45.4999 159.5 45.4999 160.1 45.3999V45.6999C159.7 45.8999 159.4 46.1999 159.2 46.3999C159 46.6999 158.9 46.9999 158.9 47.3999C158.9 47.5999 158.9 47.8999 159 48.1999C159.1 48.4999 159.2 48.7999 159.3 49.1999L161.5 54.7999L163.4 49.1999Z" fill="white"/>
<path d="M69.5 37.5002C69.9 37.4002 70.2 37.2002 70.4 36.8002C70.6 36.4002 70.6 35.5002 70.6 34.0002V28.7002C70.6 28.3002 70.5 28.0002 70.4 27.8002C70.3 27.6002 70 27.5002 69.7 27.4002V27.2002C70 27.2002 70.2 27.2002 70.5 27.2002C70.8 27.2002 71.2 27.2002 71.6 27.2002C72 27.2002 72.6 27.2002 73.2 27.2002C73.8 27.2002 74.2 27.2002 74.4 27.2002C75.6 27.2002 76.5 27.3002 77.3 27.4002C78 27.6002 78.7 27.8002 79.2 28.2002C79.9 28.7002 80.4 29.2002 80.8 29.9002C81.2 30.6002 81.3 31.3002 81.3 32.1002C81.3 32.8002 81.2 33.5002 81 34.1002C80.8 34.7002 80.4 35.3002 80 35.7002C79.4 36.3002 78.7 36.8002 77.9 37.1002C77.1 37.4002 76 37.5002 74.7 37.5002H71.8H69.5ZM73.2 27.9002V34.0002C73.2 34.7002 73.2 35.2002 73.2 35.6002C73.2 36.0002 73.3 36.3002 73.3 36.5002C73.4 36.8002 73.5 36.9002 73.7 37.1002C73.9 37.2002 74.3 37.3002 74.8 37.3002C75.9 37.3002 76.7 36.9002 77.3 36.1002C77.9 35.3002 78.2 34.1002 78.2 32.6002C78.2 31.0002 77.9 29.9002 77.3 29.1002C76.7 28.4002 75.8 28.0002 74.6 28.0002C74.4 28.0002 74.2 28.0002 74 28.0002C73.7 27.8002 73.5 27.8002 73.2 27.9002Z" fill="white" fill-opacity="0.8"/>
<path d="M84.6 32.6001V33.0001C84.6 34.3001 84.8 35.3001 85.2 36.0001C85.6 36.7001 86.1 37.0001 86.9 37.0001C87.4 37.0001 87.9 36.7001 88.3 36.2001C88.7 35.7001 89 35.0001 89.2 34.1001L89.6 34.4001C89.4 35.5001 89 36.3001 88.4 37.0001C87.8 37.6001 87 37.9001 86.1 37.9001C85 37.9001 84.2 37.5001 83.5 36.6001C82.8 35.7001 82.5 34.7001 82.5 33.4001C82.5 32.2001 82.9 31.1001 83.6 30.3001C84.3 29.5001 85.2 29.1001 86.3 29.1001C87.3 29.1001 88.2 29.4001 88.8 30.1001C89.4 30.7001 89.7 31.6001 89.7 32.7001H84.6V32.6001ZM84.6 31.9001H87C87 31.1001 86.9 30.6001 86.7 30.2001C86.5 29.8001 86.2 29.6001 85.9 29.6001C85.5 29.6001 85.2 29.8001 85 30.2001C84.8 30.6001 84.7 31.2001 84.6 31.9001Z" fill="white" fill-opacity="0.8"/>
<path d="M92.6 32.6001V33.0001C92.6 34.3001 92.8 35.3001 93.2 36.0001C93.6 36.7001 94.1 37.0001 94.9 37.0001C95.4 37.0001 95.9 36.7001 96.3 36.2001C96.7 35.7001 97 35.0001 97.2 34.1001L97.6 34.4001C97.4 35.5001 97 36.3001 96.4 37.0001C95.8 37.6001 95 37.9001 94.1 37.9001C93 37.9001 92.2 37.5001 91.5 36.6001C90.8 35.7001 90.5 34.7001 90.5 33.4001C90.5 32.2001 90.9 31.1001 91.6 30.3001C92.3 29.5001 93.2 29.1001 94.3 29.1001C95.3 29.1001 96.2 29.4001 96.8 30.1001C97.4 30.7001 97.7 31.6001 97.7 32.7001H92.6V32.6001ZM92.7 31.9001H95C95 31.1001 94.9 30.6001 94.7 30.2001C94.5 29.8001 94.2 29.6001 93.9 29.6001C93.5 29.6001 93.2 29.8001 93 30.2001C92.8 30.6001 92.7 31.2001 92.7 31.9001Z" fill="white" fill-opacity="0.8"/>
<path d="M101.1 30.5001C101.3 30.0001 101.6 29.6001 102 29.4001C102.3 29.2001 102.7 29.1001 103.2 29.1001C103.7 29.1001 104.2 29.2001 104.6 29.5001C105 29.8001 105.3 30.2001 105.6 30.8001C105.8 30.2001 106.1 29.7001 106.5 29.5001C106.9 29.2001 107.3 29.1001 107.8 29.1001C108.7 29.1001 109.3 29.4001 109.7 30.0001C110.1 30.6001 110.3 31.6001 110.3 32.9001V33.8001C110.3 35.2001 110.4 36.1001 110.5 36.6001C110.6 37.0001 110.8 37.3001 111.1 37.4001V37.6001C110.8 37.6001 110.5 37.6001 110.2 37.6001C109.9 37.6001 109.6 37.6001 109.3 37.6001C109 37.6001 108.7 37.6001 108.4 37.6001C108.1 37.6001 107.8 37.6001 107.5 37.6001V37.4001C107.7 37.3001 107.9 37.0001 108 36.7001C108.1 36.4001 108.1 35.7001 108.1 34.7001V33.8001V33.1001C108.1 32.0001 108 31.2001 107.9 30.7001C107.7 30.2001 107.5 30.0001 107.1 30.0001C106.7 30.0001 106.4 30.3001 106.2 30.8001C106 31.3001 105.9 32.1001 105.9 33.1001V33.8001C105.9 35.3001 105.9 36.2001 106 36.6001C106.1 37.0001 106.3 37.2001 106.5 37.4001V37.6001C106.2 37.6001 105.9 37.6001 105.6 37.6001C105.3 37.6001 105 37.6001 104.7 37.6001C104.4 37.6001 104.1 37.6001 103.8 37.6001C103.5 37.6001 103.2 37.6001 102.9 37.6001V37.4001C103.1 37.3001 103.3 37.0001 103.4 36.7001C103.5 36.4001 103.5 35.7001 103.5 34.7001V33.8001V33.1001C103.5 32.0001 103.4 31.2001 103.3 30.7001C103.1 30.2001 102.9 30.0001 102.5 30.0001C102.1 30.0001 101.8 30.3001 101.6 30.8001C101.4 31.3001 101.3 32.1001 101.3 33.1001V33.8001C101.3 35.3001 101.3 36.2001 101.4 36.6001C101.5 37.0001 101.7 37.2001 101.9 37.4001V37.6001C101.6 37.6001 101.3 37.6001 101 37.6001C100.7 37.6001 100.4 37.6001 100.1 37.6001C99.8002 37.6001 99.5002 37.6001 99.2002 37.6001C98.9002 37.6001 98.5002 37.6001 98.2002 37.6001V37.4001C98.5002 37.3001 98.7002 37.0001 98.8002 36.6001C98.9002 36.2001 99.0002 35.4001 99.0002 34.2001V33.8001V31.6001C99.0002 30.9001 98.9002 30.5001 98.8002 30.3001C98.7002 30.1001 98.5002 30.0001 98.2002 30.0001V29.8001C98.7002 29.7001 99.2002 29.6001 99.7002 29.5001C100.2 29.4001 100.7 29.3001 101.1 29.2001V30.5001Z" fill="white" fill-opacity="0.8"/>
<path d="M113.7 32.6001V33.0001C113.7 34.3001 113.9 35.3001 114.3 36.0001C114.7 36.7001 115.2 37.0001 116 37.0001C116.5 37.0001 117 36.7001 117.4 36.2001C117.8 35.7001 118.1 35.0001 118.3 34.1001L118.7 34.4001C118.5 35.5001 118.1 36.3001 117.5 37.0001C116.9 37.6001 116.1 37.9001 115.2 37.9001C114.1 37.9001 113.3 37.5001 112.6 36.6001C111.9 35.7001 111.6 34.7001 111.6 33.4001C111.6 32.2001 112 31.1001 112.7 30.3001C113.4 29.5001 114.3 29.1001 115.4 29.1001C116.4 29.1001 117.3 29.4001 117.9 30.1001C118.5 30.7001 118.8 31.6001 118.8 32.7001H113.7V32.6001ZM113.7 31.9001H116.1C116.1 31.1001 116 30.6001 115.8 30.2001C115.6 29.8001 115.3 29.6001 115 29.6001C114.6 29.6001 114.3 29.8001 114.1 30.2001C113.9 30.6001 113.8 31.2001 113.7 31.9001Z" fill="white" fill-opacity="0.8"/>
<path d="M125.4 37.6L125.2 36.4C124.8 36.9 124.4 37.3 124 37.5C123.6 37.7 123.2 37.9 122.8 37.9C121.8 37.9 121 37.5 120.4 36.6C119.8 35.7 119.4 34.6 119.4 33.3C119.4 32.1 119.7 31.1 120.4 30.3C121 29.5 121.8 29.1 122.8 29.1C123.2 29.1 123.6 29.2 124 29.4C124.3 29.6 124.6 29.9 124.9 30.3V28.4C124.9 27.7 124.8 27.3 124.7 27.1C124.6 26.9 124.4 26.8 124.2 26.8V26.6C124.7 26.5 125.2 26.4 125.7 26.3C126.2 26.2 126.7 26.1 127.1 26V34.3C127.1 35.5 127.2 36.3 127.3 36.7C127.4 37.1 127.6 37.3 127.9 37.5V37.7C127.7 37.7 127.6 37.7 127.4 37.7C127.2 37.7 127 37.7 126.6 37.7C126.3 37.7 126 37.7 125.8 37.7C125.7 37.6 125.6 37.6 125.4 37.6ZM121.8 33.4C121.8 34.6 121.9 35.5 122.2 36.1C122.5 36.7 122.9 37 123.4 37C123.9 37 124.3 36.7 124.5 36.1C124.8 35.5 124.9 34.6 124.9 33.4C124.9 32.2 124.8 31.3 124.5 30.7C124.2 30.1 123.9 29.8 123.4 29.8C122.9 29.8 122.5 30.1 122.2 30.7C121.9 31.3 121.8 32.2 121.8 33.4Z" fill="white" fill-opacity="0.8"/>
<path d="M135.6 33.6998C135.6 35.0998 135.7 35.9998 135.8 36.4998C136 36.9998 136.2 37.2998 136.6 37.3998V37.5998C136 37.5998 135.1 37.5998 133.8 37.5998C133.6 37.4998 133.4 37.2998 133.3 36.9998C133.2 36.6998 133.2 36.2998 133.2 35.5998C133.2 35.3998 133.2 35.0998 133.2 34.7998C133.2 34.4998 133.2 34.1998 133.2 34.0998V30.0998H132.3L132.4 29.5998C133.1 29.1998 133.6 28.7998 134.1 28.3998C134.6 27.8998 135 27.3998 135.3 26.7998H135.5C135.5 26.9998 135.5 27.2998 135.5 27.5998C135.5 27.8998 135.5 28.2998 135.5 28.6998V29.3998H136.7L136.5 30.0998H135.5V33.6998H135.6Z" fill="white" fill-opacity="0.8"/>
<path d="M137.3 33.5001C137.3 32.2001 137.7 31.1001 138.4 30.3001C139.1 29.5001 140 29.1001 141.2 29.1001C142.3 29.1001 143.2 29.5001 144 30.3001C144.7 31.1001 145.1 32.2001 145.1 33.4001C145.1 34.7001 144.7 35.8001 144 36.6001C143.3 37.4001 142.4 37.8001 141.2 37.8001C140.1 37.8001 139.2 37.4001 138.5 36.5001C137.6 35.8001 137.3 34.7001 137.3 33.5001ZM141.1 37.4001C141.6 37.4001 141.9 37.1001 142.2 36.4001C142.5 35.7001 142.6 34.7001 142.6 33.4001C142.6 32.1001 142.5 31.2001 142.2 30.5001C141.9 29.8001 141.6 29.5001 141.1 29.5001C140.6 29.5001 140.3 29.8001 140 30.5001C139.7 31.2001 139.6 32.1001 139.6 33.3001C139.6 34.6001 139.7 35.6001 140 36.3001C140.3 37.1001 140.6 37.4001 141.1 37.4001Z" fill="white" fill-opacity="0.8"/>
<path d="M152.1 37.6C151.9 37.6 151.7 37.6 151.6 37.6C151.5 37.6 151.4 37.6 151.3 37.6C151.1 37.6 150.8 37.6 150.6 37.6C150.4 37.6 150.1 37.6 149.8 37.7V37.5C150.1 37.4 150.3 37.1 150.4 36.7C150.5 36.3 150.6 35.5 150.6 34.3V33.9V28.4C150.6 27.7 150.5 27.3 150.4 27.1C150.3 26.9 150.1 26.8 149.8 26.8V26.6C150.3 26.5 150.8 26.4 151.3 26.3C151.8 26.2 152.3 26.1 152.7 26V30.3C153 29.9 153.3 29.6 153.6 29.4C153.9 29.2 154.3 29.1 154.8 29.1C155.8 29.1 156.6 29.5 157.2 30.3C157.8 31.1 158.2 32.1 158.2 33.3C158.2 34.7 157.9 35.8 157.2 36.6C156.6 37.5 155.8 37.9 154.8 37.9C154.4 37.9 154 37.8 153.6 37.5C153.2 37.3 152.8 36.9 152.4 36.4L152.1 37.6ZM154.3 37.1C154.8 37.1 155.2 36.8 155.4 36.2C155.7 35.6 155.8 34.8 155.8 33.7C155.8 32.4 155.7 31.4 155.4 30.8C155.1 30.2 154.7 29.8 154.2 29.8C153.7 29.8 153.3 30.1 153.1 30.7C152.8 31.3 152.7 32.2 152.7 33.4C152.7 34.6 152.8 35.5 153.1 36.1C153.4 36.7 153.8 37.1 154.3 37.1Z" fill="white" fill-opacity="0.8"/>
<path d="M161.4 32.6001V33.0001C161.4 34.3001 161.6 35.3001 162 36.0001C162.4 36.7001 162.9 37.0001 163.7 37.0001C164.2 37.0001 164.7 36.7001 165.1 36.2001C165.5 35.7001 165.8 35.0001 166 34.1001L166.4 34.4001C166.2 35.5001 165.8 36.3001 165.2 37.0001C164.6 37.7001 163.8 37.9001 162.9 37.9001C161.8 37.9001 161 37.5001 160.3 36.6001C159.6 35.7001 159.3 34.7001 159.3 33.4001C159.3 32.2001 159.7 31.1001 160.4 30.3001C161.1 29.5001 162 29.1001 163.1 29.1001C164.1 29.1001 165 29.4001 165.6 30.1001C166.2 30.7001 166.5 31.6001 166.5 32.7001H161.4V32.6001ZM161.4 31.9001H163.8C163.8 31.1001 163.7 30.6001 163.5 30.2001C163.3 29.8001 163 29.6001 162.7 29.6001C162.3 29.6001 162 29.8001 161.8 30.2001C161.6 30.6001 161.4 31.2001 161.4 31.9001Z" fill="white" fill-opacity="0.8"/>
<path d="M67.1001 77.2V69H70.3001C71.1001 69 71.9001 69.2 72.5001 69.5C73.1001 69.8 73.6001 70.3 73.9001 70.9C74.2001 71.5 74.4001 72.2 74.4001 73.1C74.4001 73.9 74.2001 74.7 73.9001 75.3C73.6001 75.9 73.1001 76.4 72.5001 76.7C71.9001 77 71.1001 77.2 70.3001 77.2H67.1001ZM69.1001 75.6H70.3001C71.0001 75.6 71.6001 75.4 72.0001 75C72.4001 74.6 72.6001 74 72.6001 73.2C72.6001 72.4 72.4001 71.8 72.0001 71.4C71.6001 71 71.0001 70.8 70.3001 70.8H69.1001V75.6Z" fill="white" fill-opacity="0.8"/>
<path d="M79.7002 77.2V69H85.7002V70.6H81.6002V72.2H85.6002V73.8H81.6002V75.5H85.8002V77.1H79.7002V77.2Z" fill="white" fill-opacity="0.8"/>
<path d="M91.1001 77.2V69H93.0001V72.1H96.5001V69H98.4001V77.2H96.5001V73.7H93.0001V77.2H91.1001Z" fill="white" fill-opacity="0.8"/>
<path d="M104.1 77.2V69H107.6C108.3 69 108.8 69.1 109.3 69.3C109.8 69.5 110.1 69.8 110.4 70.3C110.7 70.7 110.8 71.2 110.8 71.7C110.8 72.3 110.7 72.8 110.4 73.2C110.1 73.6 109.7 73.9 109.3 74.2L111.3 77.2H109L107.3 74.5H106V77.2H104.1ZM106 72.9H107.3C107.8 72.9 108.2 72.8 108.5 72.6C108.7 72.4 108.9 72.1 108.9 71.7C108.9 71.3 108.8 71 108.5 70.9C108.3 70.7 107.9 70.6 107.3 70.6H106V72.9Z" fill="white" fill-opacity="0.8"/>
<path d="M121.6 77.2L121 75.6H117.9L117.3 77.2H115.4L118.5 69H120.5L123.6 77.2H121.6ZM118.5 74H120.5L119.5 71.2L118.5 74Z" fill="white" fill-opacity="0.8"/>
<path d="M128.5 77.2V69H131.7C132.5 69 133.3 69.2 133.9 69.5C134.5 69.8 135 70.3 135.3 70.9C135.6 71.5 135.8 72.2 135.8 73.1C135.8 73.9 135.6 74.7 135.3 75.3C135 75.9 134.5 76.4 133.9 76.7C133.3 77 132.5 77.2 131.7 77.2H128.5ZM130.4 75.6H131.6C132.3 75.6 132.9 75.4 133.3 75C133.7 74.6 133.9 74 133.9 73.2C133.9 72.4 133.7 71.8 133.3 71.4C132.9 71 132.3 70.8 131.6 70.8H130.4V75.6Z" fill="white" fill-opacity="0.8"/>
<path d="M142.5 77C142 76.7 141.5 76.3 141.3 75.7C141 75.1 140.9 74.5 140.9 73.7V69H142.8V73.4C142.8 74.1 142.9 74.6 143.2 75.1C143.5 75.5 143.9 75.7 144.5 75.7C145.1 75.7 145.6 75.5 145.9 75.1C146.2 74.7 146.3 74.1 146.3 73.4V69H148.2V73.6C148.2 74.4 148.1 75 147.8 75.6C147.5 76.2 147.1 76.6 146.6 76.9C146.1 77.2 145.4 77.4 144.6 77.4C143.7 77.4 143.1 77.3 142.5 77Z" fill="white" fill-opacity="0.8"/>
<path d="M153.7 77.2V69H155.5L159.2 74.3V69H161V77.2H159.2L155.5 71.9V77.2H153.7Z" fill="white" fill-opacity="0.8"/>
<path fill-rule="evenodd" clip-rule="evenodd" d="M180.1 46.6997L182.5 46.0997C182.3 45.1997 182.2 44.2997 182.1 43.3997H179.6C179.5 42.2997 179.5 41.2997 179.5 40.1997C179.5 39.0997 179.5 37.9997 179.6 36.9997H182.1C182.2 36.0997 182.3 35.1997 182.5 34.2997L180.1 33.6997C180.5 31.5997 181 29.4997 181.8 27.4997L184.2 28.0997C184.5 27.1997 184.9 26.3997 185.2 25.5997L183 24.3997C183.9 22.3997 185 20.5997 186.2 18.7997L188.4 19.9997C188.9 19.2997 189.5 18.4997 190.1 17.7997L188.3 15.9997C189.7 14.3997 191.2 12.7997 192.8 11.4997L194.6 13.2997C195.3 12.6997 196 12.1997 196.8 11.5997L195.6 9.39971C197.4 8.19971 199.2 7.09971 201.2 6.19971L202.4 8.39971C203.2 7.99971 204.1 7.69971 204.9 7.39971L204.3 4.99971C206.3 4.29971 208.4 3.69971 210.5 3.29971L211.1 5.69971C212 5.49971 212.9 5.39971 213.8 5.29971V2.79971C214.9 2.69971 215.9 2.69971 217 2.69971C218.1 2.69971 219.2 2.69971 220.2 2.79971V5.29971C221.1 5.39971 222 5.49971 222.9 5.69971L223.5 3.29971C225.6 3.69971 227.7 4.19971 229.7 4.99971L229.1 7.39971C230 7.69971 230.8 8.09971 231.6 8.39971L232.8 6.19971C234.8 7.09971 236.6 8.19971 238.4 9.39971L237.2 11.5997C237.9 12.0997 238.7 12.6997 239.4 13.2997L241.2 11.4997C242.8 12.8997 244.4 14.3997 245.7 15.9997L243.9 17.7997C244.5 18.4997 245 19.1997 245.6 19.9997L247.8 18.7997C249 20.5997 250.1 22.3997 251 24.3997L248.8 25.5997C249.2 26.3997 249.5 27.2997 249.8 28.0997L252.2 27.4997C252.9 29.4997 253.5 31.5997 253.9 33.6997L251.5 34.2997C251.7 35.1997 251.8 36.0997 251.9 36.9997H254.4C254.5 38.0997 254.5 39.0997 254.5 40.1997C254.5 41.2997 254.5 42.3997 254.4 43.3997H251.9C251.8 44.2997 251.7 45.1997 251.5 46.0997L253.9 46.6997C253.5 48.7997 253 50.8997 252.2 52.8997L249.8 52.2997C249.5 53.1997 249.1 53.9997 248.8 54.7997L251 55.9997C250.1 57.9997 249 59.7997 247.8 61.5997L245.6 60.3997C245.1 61.0997 244.5 61.8997 243.9 62.5997L245.7 64.3997C244.3 65.9997 242.8 67.5997 241.2 68.8997L239.4 67.0997C238.7 67.6997 238 68.1997 237.2 68.7997L238.4 70.9997C236.6 72.1997 234.8 73.2997 232.8 74.1997L231.6 71.9997C230.8 72.3997 229.9 72.6997 229.1 72.9997L229.7 75.3997C227.7 76.0997 225.6 76.6997 223.5 77.0997L222.9 74.6997C222 74.8997 221.1 74.9997 220.2 75.0997V77.5997C219.1 77.6997 218.1 77.6997 217 77.6997C215.9 77.6997 214.8 77.6997 213.8 77.5997V74.9997C212.9 74.8997 212 74.7997 211.1 74.5997L210.5 76.9997C208.4 76.5997 206.3 76.0997 204.3 75.2997L204.9 72.8997C204 72.5997 203.2 72.1997 202.4 71.8997L201.2 74.0997C199.2 73.1997 197.4 72.0997 195.6 70.8997L196.8 68.6997C196.1 68.1997 195.3 67.5997 194.6 66.9997L192.8 68.7997C191.2 67.3997 189.6 65.8997 188.3 64.2997L190.1 62.4997C189.5 61.7997 189 61.0997 188.4 60.2997L186.2 61.4997C185 59.6997 183.9 57.8997 183 55.8997L185.2 54.6997C184.8 53.8997 184.5 52.9997 184.2 52.1997L181.8 52.7997C181 50.8997 180.5 48.8997 180.1 46.6997Z" fill="white"/>
<path d="M180.1 46.6997L182.5 46.0997C182.3 45.1997 182.2 44.2997 182.1 43.3997H179.6C179.5 42.2997 179.5 41.2997 179.5 40.1997C179.5 39.0997 179.5 37.9997 179.6 36.9997H182.1C182.2 36.0997 182.3 35.1997 182.5 34.2997L180.1 33.6997C180.5 31.5997 181 29.4997 181.8 27.4997L184.2 28.0997C184.5 27.1997 184.9 26.3997 185.2 25.5997L183 24.3997C183.9 22.3997 185 20.5997 186.2 18.7997L188.4 19.9997C188.9 19.2997 189.5 18.4997 190.1 17.7997L188.3 15.9997C189.7 14.3997 191.2 12.7997 192.8 11.4997L194.6 13.2997C195.3 12.6997 196 12.1997 196.8 11.5997L195.6 9.39971C197.4 8.19971 199.2 7.09971 201.2 6.19971L202.4 8.39971C203.2 7.99971 204.1 7.69971 204.9 7.39971L204.3 4.99971C206.3 4.29971 208.4 3.69971 210.5 3.29971L211.1 5.69971C212 5.49971 212.9 5.39971 213.8 5.29971V2.79971C214.9 2.69971 215.9 2.69971 217 2.69971C218.1 2.69971 219.2 2.69971 220.2 2.79971V5.29971C221.1 5.39971 222 5.49971 222.9 5.69971L223.5 3.29971C225.6 3.69971 227.7 4.19971 229.7 4.99971L229.1 7.39971C230 7.69971 230.8 8.09971 231.6 8.39971L232.8 6.19971C234.8 7.09971 236.6 8.19971 238.4 9.39971L237.2 11.5997C237.9 12.0997 238.7 12.6997 239.4 13.2997L241.2 11.4997C242.8 12.8997 244.4 14.3997 245.7 15.9997L243.9 17.7997C244.5 18.4997 245 19.1997 245.6 19.9997L247.8 18.7997C249 20.5997 250.1 22.3997 251 24.3997L248.8 25.5997C249.2 26.3997 249.5 27.2997 249.8 28.0997L252.2 27.4997C252.9 29.4997 253.5 31.5997 253.9 33.6997L251.5 34.2997C251.7 35.1997 251.8 36.0997 251.9 36.9997H254.4C254.5 38.0997 254.5 39.0997 254.5 40.1997C254.5 41.2997 254.5 42.3997 254.4 43.3997H251.9C251.8 44.2997 251.7 45.1997 251.5 46.0997L253.9 46.6997C253.5 48.7997 253 50.8997 252.2 52.8997L249.8 52.2997C249.5 53.1997 249.1 53.9997 248.8 54.7997L251 55.9997C250.1 57.9997 249 59.7997 247.8 61.5997L245.6 60.3997C245.1 61.0997 244.5 61.8997 243.9 62.5997L245.7 64.3997C244.3 65.9997 242.8 67.5997 241.2 68.8997L239.4 67.0997C238.7 67.6997 238 68.1997 237.2 68.7997L238.4 70.9997C236.6 72.1997 234.8 73.2997 232.8 74.1997L231.6 71.9997C230.8 72.3997 229.9 72.6997 229.1 72.9997L229.7 75.3997C227.7 76.0997 225.6 76.6997 223.5 77.0997L222.9 74.6997C222 74.8997 221.1 74.9997 220.2 75.0997V77.5997C219.1 77.6997 218.1 77.6997 217 77.6997C215.9 77.6997 214.8 77.6997 213.8 77.5997V74.9997C212.9 74.8997 212 74.7997 211.1 74.5997L210.5 76.9997C208.4 76.5997 206.3 76.0997 204.3 75.2997L204.9 72.8997C204 72.5997 203.2 72.1997 202.4 71.8997L201.2 74.0997C199.2 73.1997 197.4 72.0997 195.6 70.8997L196.8 68.6997C196.1 68.1997 195.3 67.5997 194.6 66.9997L192.8 68.7997C191.2 67.3997 189.6 65.8997 188.3 64.2997L190.1 62.4997C189.5 61.7997 189 61.0997 188.4 60.2997L186.2 61.4997C185 59.6997 183.9 57.8997 183 55.8997L185.2 54.6997C184.8 53.8997 184.5 52.9997 184.2 52.1997L181.8 52.7997C181 50.8997 180.5 48.8997 180.1 46.6997Z" stroke="black" stroke-width="0.1306" stroke-miterlimit="2.6131"/>
<path fill-rule="evenodd" clip-rule="evenodd" d="M180.1 46.6998L182.5 46.0998C182.3 45.1998 182.2 44.2998 182.1 43.3998H179.6C179.5 42.2998 179.5 41.2998 179.5 40.1998C179.5 39.3998 179.5 38.5998 179.6 37.7998L180 37.3998L183.2 37.5998H250.3L254 37.2998L254.4 37.7998C254.4 38.5998 254.5 39.3998 254.5 40.1998C254.5 41.2998 254.5 42.3998 254.4 43.3998H251.9C251.8 44.2998 251.7 45.1998 251.5 46.0998L253.9 46.6998C253.5 48.7998 253 50.8998 252.2 52.8998L249.8 52.2998C249.5 53.1998 249.1 53.9998 248.8 54.7998L251 55.9998C250.1 57.9998 249 59.7998 247.8 61.5998L245.6 60.3998C245.1 61.0998 244.5 61.8998 243.9 62.5998L245.7 64.3998C244.3 65.9998 242.8 67.5998 241.2 68.8998L239.4 67.0998C238.7 67.6998 238 68.1998 237.2 68.7998L238.4 70.9998C236.6 72.1998 234.8 73.2998 232.8 74.1998L231.6 71.9998C230.8 72.3998 229.9 72.6998 229.1 72.9998L229.7 75.3998C227.7 76.0998 225.6 76.6998 223.5 77.0998L222.9 74.6998C222 74.8998 221.1 74.9998 220.2 75.0998V77.5998C219.1 77.6998 218.1 77.6998 217 77.6998C215.9 77.6998 214.8 77.6998 213.8 77.5998V74.9998C212.9 74.8998 212 74.7998 211.1 74.5998L210.5 76.9998C208.4 76.5998 206.3 76.0998 204.3 75.2998L204.9 72.8998C204 72.5998 203.2 72.1998 202.4 71.8998L201.2 74.0998C199.2 73.1998 197.4 72.0998 195.6 70.8998L196.8 68.6998C196.1 68.1998 195.3 67.5998 194.6 66.9998L192.8 68.7998C191.2 67.3998 189.6 65.8998 188.3 64.2998L190.1 62.4998C189.5 61.7998 189 61.0998 188.4 60.2998L186.2 61.4998C185 59.6998 183.9 57.8998 183 55.8998L185.2 54.6998C184.8 53.8998 184.5 52.9998 184.2 52.1998L181.8 52.7998C181 50.8998 180.5 48.8998 180.1 46.6998Z" fill="black"/>
<path d="M180.1 46.6998L182.5 46.0998C182.3 45.1998 182.2 44.2998 182.1 43.3998H179.6C179.5 42.2998 179.5 41.2998 179.5 40.1998C179.5 39.3998 179.5 38.5998 179.6 37.7998L180 37.3998L183.2 37.5998H250.3L254 37.2998L254.4 37.7998C254.4 38.5998 254.5 39.3998 254.5 40.1998C254.5 41.2998 254.5 42.3998 254.4 43.3998H251.9C251.8 44.2998 251.7 45.1998 251.5 46.0998L253.9 46.6998C253.5 48.7998 253 50.8998 252.2 52.8998L249.8 52.2998C249.5 53.1998 249.1 53.9998 248.8 54.7998L251 55.9998C250.1 57.9998 249 59.7998 247.8 61.5998L245.6 60.3998C245.1 61.0998 244.5 61.8998 243.9 62.5998L245.7 64.3998C244.3 65.9998 242.8 67.5998 241.2 68.8998L239.4 67.0998C238.7 67.6998 238 68.1998 237.2 68.7998L238.4 70.9998C236.6 72.1998 234.8 73.2998 232.8 74.1998L231.6 71.9998C230.8 72.3998 229.9 72.6998 229.1 72.9998L229.7 75.3998C227.7 76.0998 225.6 76.6998 223.5 77.0998L222.9 74.6998C222 74.8998 221.1 74.9998 220.2 75.0998V77.5998C219.1 77.6998 218.1 77.6998 217 77.6998C215.9 77.6998 214.8 77.6998 213.8 77.5998V74.9998C212.9 74.8998 212 74.7998 211.1 74.5998L210.5 76.9998C208.4 76.5998 206.3 76.0998 204.3 75.2998L204.9 72.8998C204 72.5998 203.2 72.1998 202.4 71.8998L201.2 74.0998C199.2 73.1998 197.4 72.0998 195.6 70.8998L196.8 68.6998C196.1 68.1998 195.3 67.5998 194.6 66.9998L192.8 68.7998C191.2 67.3998 189.6 65.8998 188.3 64.2998L190.1 62.4998C189.5 61.7998 189 61.0998 188.4 60.2998L186.2 61.4998C185 59.6998 183.9 57.8998 183 55.8998L185.2 54.6998C184.8 53.8998 184.5 52.9998 184.2 52.1998L181.8 52.7998C181 50.8998 180.5 48.8998 180.1 46.6998Z" stroke="black" stroke-width="0.087099" stroke-miterlimit="2.6131"/>
<path fill-rule="evenodd" clip-rule="evenodd" d="M217 5.99951C235.1 5.99951 250.3 19.9995 251.5 37.7995H241.8C240.6 25.1995 230 15.2995 217.1 15.2995C204.2 15.2995 193.5 25.1995 192.4 37.7995H182.7C183.8 19.9995 198.9 5.99951 217 5.99951Z" fill="white"/>
<path fill-rule="evenodd" clip-rule="evenodd" d="M217 15.0996C230.9 15.0996 242.1 26.2996 242.1 40.1996C242.1 54.0996 230.9 65.2996 217 65.2996C203.1 65.2996 191.9 54.0996 191.9 40.1996C191.9 26.2996 203.2 15.0996 217 15.0996Z" fill="white"/>
<path d="M217 15.0996C230.9 15.0996 242.1 26.2996 242.1 40.1996C242.1 54.0996 230.9 65.2996 217 65.2996C203.1 65.2996 191.9 54.0996 191.9 40.1996C191.9 26.2996 203.2 15.0996 217 15.0996Z" stroke="black" stroke-width="0.1306" stroke-miterlimit="2.6131"/>
<path fill-rule="evenodd" clip-rule="evenodd" d="M217.8 16.3999C216.7 24.7999 194.9 29.0999 197.8 45.8999C198.2 47.4999 198.6 48.3999 199.7 49.7999C204 55.3999 208.8 57.0999 217.1 58.8999C239.7 54.8999 240 38.4999 231.2 36.7999C225.4 36.0999 220.5 37.0999 216.6 40.5999C224.8 34.8999 234.4 38.5999 230.8 47.1999C229.3 50.3999 222.8 54.6999 217 55.9999C203.7 52.9999 196.5 43.4999 206.9 32.1999C215 24.4999 217.9 20.7999 217.8 16.3999Z" fill="#BC1839"/>
<path fill-rule="evenodd" clip-rule="evenodd" d="M217.3 22.3999C213.1 31.2999 198.7 35.7999 204 46.9999C207.2 51.4999 211.9 53.8999 217 55.1999C237 49.0999 231.9 35.0999 221.3 39.0999C230.1 37.9999 230.4 48.4999 217 52.6999C208.7 50.7999 204.4 45.8999 207.1 39.1999C209.7 32.3999 215.4 30.7999 217.3 22.3999Z" fill="#F48120"/>
<path fill-rule="evenodd" clip-rule="evenodd" d="M206.9 42.6998C210.4 36.6998 220.7 37.6998 217.7 22.2998C217.9 34.8998 207.1 36.1998 206.9 42.6998Z" fill="#F48120"/>
<path d="M221.3 59.6997H212.6V61.4997H221.3V59.6997Z" fill="#BC1839"/>
<path d="M220 62.1997H213.9V63.9997H220V62.1997Z" fill="#BC1839"/>
<path fill-rule="evenodd" clip-rule="evenodd" d="M218.3 20.0996C221.8 26.3996 222.6 32.4996 215.2 37.9996C219.7 32.2996 220.4 26.2996 218.3 20.0996Z" fill="#F48120"/>
<path fill-rule="evenodd" clip-rule="evenodd" d="M241.8 25.3998L243.2 23.7998L241.1 24.3998L241.8 25.3998ZM241 26.3998L239.9 24.6998L239 24.9998L238 23.4998L244 22.1998L245 23.7998L241.4 28.6998L240.4 27.0998L241 26.3998ZM237.6 18.2998L238.1 18.7998C238.2 18.8998 238.3 18.8998 238.5 19.0998C238.6 19.1998 238.7 19.1998 238.8 19.1998C238.9 19.1998 239 19.0998 239.1 18.9998C239.2 18.8998 239.3 18.6998 239.3 18.5998C239.3 18.3998 239.2 18.2998 238.9 17.9998L238.3 17.4998L237.6 18.2998ZM234 19.4998L237.9 15.3998L240 17.3998C240.4 17.7998 240.7 18.0998 240.8 18.3998C240.9 18.6998 241 18.9998 240.9 19.2998C240.9 19.5998 240.7 19.8998 240.5 20.1998C240.3 20.3998 240 20.5998 239.8 20.6998C239.5 20.7998 239.3 20.7998 239 20.6998C238.8 20.6998 238.6 20.5998 238.4 20.3998C238.5 20.5998 238.6 20.7998 238.6 20.8998C238.6 20.9998 238.6 21.0998 238.6 21.2998C238.6 21.4998 238.6 21.5998 238.5 21.6998L238 23.4998L236.6 22.0998L237.1 20.1998C237.2 19.9998 237.2 19.7998 237.2 19.6998C237.2 19.4998 237.1 19.3998 237 19.2998L236.9 19.1998L235.3 20.8998L234 19.4998ZM232.3 11.4998L236.3 13.9998L235.6 14.9998L233.1 13.3998L232.6 14.1998L234.9 15.6998L234.3 16.6998L232 15.1998L231.4 16.0998L234 17.6998L233.3 18.7998L229.3 16.1998L232.3 11.4998ZM225 12.1998L226.4 12.9998C226.2 13.3998 226 13.6998 225.7 13.8998C225.4 14.0998 225.1 14.2998 224.7 14.3998C224.3 14.4998 223.9 14.3998 223.4 14.2998C222.8 14.1998 222.3 13.9998 222 13.6998C221.7 13.3998 221.4 13.0998 221.2 12.4998C221 11.9998 221 11.3998 221.2 10.6998C221.4 9.7998 221.8 9.0998 222.4 8.7998C223 8.3998 223.8 8.2998 224.6 8.4998C225.3 8.6998 225.8 8.8998 226.2 9.2998C226.5 9.6998 226.7 10.1998 226.8 10.7998H225.2C225.2 10.5998 225.2 10.4998 225.1 10.3998C225 10.1998 224.9 10.0998 224.8 9.9998C224.7 9.8998 224.5 9.7998 224.4 9.7998C224 9.6998 223.7 9.7998 223.4 10.0998C223.2 10.2998 223 10.5998 222.9 11.0998C222.8 11.6998 222.8 12.1998 222.9 12.3998C223 12.6998 223.3 12.7998 223.6 12.8998C223.9 12.9998 224.2 12.8998 224.4 12.7998C224.7 12.7998 224.8 12.4998 225 12.1998ZM218.2 7.7998L220 7.8998L219.6 13.5998L217.8 13.4998L218.2 7.7998ZM210.3 8.3998L212 8.1998L212.3 10.1998L214.2 9.9998L213.9 7.9998L215.7 7.7998L216.4 13.4998L214.6 13.6998L214.3 11.3998L212.4 11.5998L212.7 13.8998L211 14.0998L210.3 8.3998ZM206.1 12.2998L206.5 12.0998C206.8 11.9998 207 11.7998 207.1 11.6998C207.2 11.4998 207.2 11.3998 207.1 11.1998C207 10.9998 206.9 10.8998 206.8 10.7998C206.6 10.6998 206.4 10.7998 206.1 10.8998L205.6 11.0998L206.1 12.2998ZM203.6 10.6998L206.3 9.5998C206.9 9.3998 207.4 9.2998 207.8 9.4998C208.2 9.6998 208.5 9.9998 208.7 10.4998C208.9 10.9998 208.9 11.4998 208.7 11.8998C208.5 12.2998 208.1 12.6998 207.4 12.8998L206.5 13.2998L207.3 15.2998L205.7 15.8998L203.6 10.6998ZM201.8 15.5998L200.2 14.1998L200.8 16.2998L201.8 15.5998ZM202.7 16.4998L201 17.5998L201.3 18.4998L199.8 19.4998L198.5 13.4998L200.1 12.4998L205 16.0998L203.4 17.0998L202.7 16.4998ZM194.7 19.9998L195.2 19.4998C195.3 19.3998 195.3 19.2998 195.5 19.0998C195.6 18.9998 195.6 18.8998 195.6 18.7998C195.6 18.6998 195.5 18.5998 195.4 18.4998C195.3 18.3998 195.1 18.2998 195 18.2998C194.8 18.2998 194.7 18.3998 194.4 18.6998L193.9 19.2998L194.7 19.9998ZM195.9 23.5998L191.8 19.6998L193.8 17.5998C194.2 17.1998 194.5 16.8998 194.8 16.7998C195.1 16.6998 195.4 16.5998 195.7 16.6998C196 16.6998 196.3 16.8998 196.6 17.0998C196.8 17.2998 197 17.5998 197.1 17.7998C197.2 18.0998 197.2 18.2998 197.1 18.5998C197.1 18.7998 197 18.9998 196.8 19.1998C197 19.0998 197.2 18.9998 197.3 18.9998C197.4 18.9998 197.5 18.9998 197.7 18.9998C197.9 18.9998 198 18.9998 198.1 19.0998L199.9 19.5998L198.5 20.9998L196.6 20.4998C196.4 20.3998 196.2 20.3998 196.1 20.3998C195.9 20.3998 195.8 20.4998 195.7 20.5998L195.6 20.6998L197.3 22.2998L195.9 23.5998ZM192.2 25.6998L191.2 25.0998L192.6 22.6998L194.7 23.8998C194.7 24.4998 194.7 24.9998 194.6 25.4998C194.5 25.8998 194.3 26.3998 194.1 26.7998C193.8 27.3998 193.4 27.7998 193 28.0998C192.6 28.3998 192.1 28.4998 191.6 28.3998C191.1 28.3998 190.6 28.1998 190.1 27.8998C189.6 27.5998 189.2 27.1998 188.9 26.7998C188.6 26.2998 188.5 25.7998 188.6 25.2998C188.6 24.8998 188.8 24.3998 189.1 23.7998C189.4 23.2998 189.7 22.8998 190 22.6998C190.3 22.4998 190.5 22.2998 190.8 22.2998C191.1 22.1998 191.5 22.2998 191.8 22.3998L191.2 23.9998C191 23.9998 190.8 23.9998 190.6 24.0998C190.4 24.1998 190.3 24.2998 190.1 24.5998C189.9 24.8998 189.9 25.2998 190 25.5998C190.1 25.8998 190.4 26.1998 190.9 26.4998C191.4 26.7998 191.9 26.8998 192.2 26.8998C192.5 26.7998 192.8 26.5998 193 26.2998C193.1 26.0998 193.2 25.9998 193.2 25.7998C193.2 25.5998 193.3 25.3998 193.3 25.0998L192.8 24.7998L192.2 25.6998Z" fill="#BC1839"/>
<path fill-rule="evenodd" clip-rule="evenodd" d="M245.9 39.0996L248.4 40.6996L250.3 40.7996V41.8996L248.5 41.7996L245.8 43.2996V41.9996L247.4 41.1996L245.8 40.2996L245.9 39.0996ZM249.7 46.7996L246.2 46.0996L246 47.3996L245.2 47.1996L245.9 43.4996L246.7 43.6996L246.5 44.9996L250 45.6996L249.7 46.7996ZM249.1 49.2996L248.3 51.5996L247.6 51.3996L247.8 50.7996L245.1 49.8996L244.9 50.4996L244.2 50.2996L245 47.9996L245.7 48.1996L245.5 48.7996L248.2 49.6996L248.4 49.0996L249.1 49.2996ZM247.1 54.6996C247 54.9996 246.8 55.2996 246.6 55.4996C246.4 55.6996 246.3 55.8996 246.1 56.0996L245.1 55.6996V55.5996C245.4 55.4996 245.6 55.2996 245.8 55.0996C246 54.8996 246.2 54.6996 246.3 54.3996C246.3 54.2996 246.4 54.2996 246.4 54.1996C246.4 54.0996 246.4 53.9996 246.4 53.8996C246.4 53.7996 246.4 53.6996 246.4 53.6996C246.4 53.5996 246.3 53.5996 246.2 53.4996C246.1 53.4996 246 53.4996 245.9 53.4996C245.8 53.5996 245.7 53.5996 245.6 53.6996C245.5 53.7996 245.4 53.9996 245.3 54.0996C245.2 54.1996 245.1 54.3996 245 54.4996C244.7 54.7996 244.5 54.8996 244.3 54.9996C244.1 55.0996 243.8 54.9996 243.5 54.8996C243.1 54.6996 242.9 54.3996 242.8 53.9996C242.7 53.5996 242.8 53.0996 243 52.5996C243.1 52.3996 243.2 52.0996 243.4 51.8996C243.6 51.6996 243.7 51.4996 243.9 51.2996L244.8 51.6996V51.7996C244.6 51.8996 244.4 51.9996 244.2 52.1996C244 52.3996 243.9 52.5996 243.8 52.7996C243.8 52.8996 243.7 52.9996 243.7 52.9996C243.7 53.0996 243.7 53.1996 243.7 53.2996C243.7 53.3996 243.7 53.3996 243.8 53.4996C243.8 53.5996 243.9 53.5996 244 53.6996C244.1 53.6996 244.2 53.6996 244.3 53.6996C244.4 53.6996 244.5 53.4996 244.7 53.2996C244.8 53.1996 244.9 53.0996 245 52.8996C245.1 52.7996 245.2 52.6996 245.3 52.4996C245.5 52.2996 245.8 52.0996 246 52.0996C246.2 51.9996 246.5 52.0996 246.8 52.1996C247.2 52.3996 247.5 52.6996 247.6 53.0996C247.4 53.6996 247.4 54.1996 247.1 54.6996ZM242.3 56.6996C242.2 56.5996 242.1 56.5996 242 56.5996C241.9 56.5996 241.8 56.5996 241.7 56.6996C241.6 56.6996 241.6 56.7996 241.5 56.8996C241.4 56.9996 241.4 56.9996 241.3 57.1996L241.1 57.4996L242.1 58.1996L242.3 57.8996C242.4 57.7996 242.5 57.6996 242.5 57.5996C242.5 57.4996 242.6 57.3996 242.6 57.2996C242.6 57.1996 242.6 57.0996 242.5 57.0996C242.5 56.8996 242.4 56.7996 242.3 56.6996ZM245.9 57.0996L245.1 58.1996H243L242.8 58.4996L244.1 59.4996L243.4 60.3996L239.8 57.7996L240.9 56.3996C241 56.1996 241.2 55.9996 241.3 55.8996C241.4 55.7996 241.6 55.6996 241.8 55.5996C242 55.4996 242.2 55.4996 242.3 55.4996C242.5 55.4996 242.7 55.5996 242.9 55.6996C243.2 55.8996 243.4 56.0996 243.4 56.3996C243.5 56.5996 243.5 56.8996 243.4 57.1996L245.9 57.0996ZM240.3 63.9996L237.1 60.8996L239.2 58.6996L239.8 59.2996L238.5 60.6996L239.1 61.1996L240.3 59.8996L240.9 60.4996L239.7 61.7996L240.5 62.5996L241.8 61.1996L242.4 61.7996L240.3 63.9996ZM236.6 61.4996L238.2 65.8996L237.3 66.5996L233.3 64.0996L234.2 63.3996L236.8 65.0996L235.7 62.0996L236.6 61.4996ZM235 68.2996L232.9 69.4996L232.5 68.7996L233.1 68.4996L231.6 65.9996L231 66.2996L230.6 65.5996L232.7 64.3996L233.1 65.0996L232.5 65.3996L234 67.8996L234.6 67.5996L235 68.2996ZM231.4 70.2996L230.4 70.6996L227.7 68.4996L228.8 71.3996L227.8 71.7996L226.2 67.6996L227.5 67.1996L229.8 68.9996L228.9 66.5996L229.9 66.1996L231.4 70.2996ZM224.3 72.7996C223.7 72.8996 223.2 72.8996 222.9 72.6996C222.5 72.4996 222.3 72.0996 222.1 71.5996L221.5 68.7996L222.6 68.4996L223.2 71.1996C223.3 71.4996 223.4 71.6996 223.5 71.7996C223.6 71.8996 223.8 71.9996 224.1 71.8996C224.3 71.7996 224.5 71.6996 224.6 71.5996C224.7 71.3996 224.7 71.1996 224.6 70.8996L224 68.1996L225.1 67.8996L225.7 70.6996C225.8 71.1996 225.8 71.6996 225.5 71.9996C225.3 72.3996 224.9 72.5996 224.3 72.7996ZM216 73.4996L215.8 69.0996L218.8 68.9996V69.8996L216.9 69.9996V70.7996L218.7 70.6996V71.5996L216.9 71.6996V72.7996L218.8 72.6996V73.5996L216 73.4996ZM213.4 71.8996C213.4 71.7996 213.4 71.6996 213.4 71.5996C213.4 71.4996 213.3 71.3996 213.2 71.3996C213.1 71.3996 213 71.2996 212.9 71.2996C212.8 71.2996 212.6 71.2996 212.4 71.1996H212.2L212.1 72.2996H212.2C212.5 72.2996 212.7 72.3996 212.8 72.3996C212.9 72.3996 213 72.3996 213.1 72.3996C213.2 72.3996 213.3 72.2996 213.3 72.1996C213.3 72.0996 213.3 71.9996 213.4 71.8996ZM213.3 70.0996C213.3 69.9996 213.3 69.9996 213.3 69.8996C213.3 69.7996 213.2 69.7996 213.1 69.6996C213 69.6996 212.9 69.5996 212.8 69.5996C212.7 69.5996 212.6 69.5996 212.4 69.4996H212.3L212.2 70.3996H212.3C212.5 70.3996 212.6 70.3996 212.7 70.3996C212.8 70.3996 212.9 70.3996 212.9 70.3996C213 70.3996 213.1 70.2996 213.1 70.1996C213.3 70.1996 213.3 70.1996 213.3 70.0996ZM214.5 72.0996C214.5 72.2996 214.4 72.4996 214.3 72.6996C214.2 72.8996 214.1 72.9996 213.9 73.0996C213.7 73.1996 213.5 73.2996 213.3 73.2996C213.1 73.2996 212.8 73.2996 212.5 73.2996L210.7 73.0996L211.2 68.6996L212.8 68.8996C213.1 68.8996 213.4 68.9996 213.5 68.9996C213.7 68.9996 213.8 69.0996 214 69.1996C214.1 69.2996 214.3 69.3996 214.3 69.5996C214.4 69.7996 214.4 69.8996 214.4 70.0996C214.4 70.2996 214.3 70.4996 214.2 70.6996C214.1 70.8996 213.9 70.9996 213.7 70.9996C214 71.0996 214.2 71.1996 214.3 71.3996C214.5 71.4996 214.5 71.7996 214.5 72.0996ZM207.2 69.6996C207.3 69.4996 207.4 69.1996 207.4 68.9996C207.4 68.7996 207.4 68.5996 207.4 68.4996C207.4 68.3996 207.3 68.1996 207.2 68.0996C207.1 67.9996 207 67.8996 206.9 67.8996C206.8 67.7996 206.6 67.7996 206.5 67.7996C206.4 67.7996 206.2 67.7996 206.1 67.8996C206 67.9996 205.8 68.0996 205.7 68.1996C205.6 68.3996 205.5 68.5996 205.4 68.7996C205.3 69.0996 205.2 69.2996 205.2 69.4996C205.2 69.6996 205.2 69.8996 205.2 69.9996C205.2 70.1996 205.3 70.2996 205.4 70.3996C205.5 70.4996 205.6 70.5996 205.7 70.5996C205.8 70.5996 206 70.6996 206.1 70.6996C206.2 70.6996 206.4 70.6996 206.5 70.5996C206.6 70.4996 206.8 70.3996 206.9 70.2996C207 70.1996 207.1 69.9996 207.2 69.6996ZM208.3 70.1996C208 70.8996 207.6 71.2996 207.1 71.5996C206.6 71.7996 206 71.7996 205.4 71.5996C204.8 71.2996 204.4 70.9996 204.2 70.3996C204 69.8996 204 69.2996 204.3 68.5996C204.6 67.8996 205 67.4996 205.5 67.1996C206 66.9996 206.6 66.9996 207.2 67.1996C207.8 67.4996 208.2 67.7996 208.4 68.3996C208.6 68.8996 208.6 69.4996 208.3 70.1996ZM200.2 68.8996L202 65.7996L200.9 65.0996L201.3 64.3996L204.5 66.2996L204.1 66.9996L203 66.2996L201.2 69.3996L200.2 68.8996ZM197.2 64.1996C197.4 63.9996 197.5 63.7996 197.6 63.4996C197.7 63.2996 197.7 63.0996 197.6 62.7996C197.5 62.5996 197.5 62.4996 197.3 62.3996C197.2 62.2996 197 62.1996 196.9 61.9996L195.1 64.0996C195.3 64.2996 195.5 64.3996 195.6 64.4996C195.7 64.5996 195.9 64.6996 196.1 64.6996C196.3 64.6996 196.5 64.6996 196.7 64.5996C196.8 64.4996 197 64.3996 197.2 64.1996ZM198.1 64.8996C197.8 65.1996 197.5 65.3996 197.2 65.5996C196.8 65.6996 196.5 65.7996 196.2 65.6996C195.9 65.6996 195.7 65.5996 195.4 65.3996C195.2 65.2996 194.9 65.0996 194.7 64.8996L193.7 63.9996L196.6 60.5996L197.6 61.4996C197.8 61.6996 198 61.8996 198.2 62.0996C198.4 62.2996 198.5 62.5996 198.6 62.7996C198.7 63.0996 198.7 63.4996 198.6 63.7996C198.5 64.2996 198.3 64.5996 198.1 64.8996ZM190.5 60.3996L193.9 57.4996L195.9 59.7996L195.3 60.3996L194.1 58.9996L193.5 59.4996L194.7 60.7996L194.1 61.3996L192.9 60.0996L192.1 60.7996L193.3 62.1996L192.7 62.7996L190.5 60.3996ZM189.4 58.8996L188.8 57.8996L191.3 56.3996L189.2 56.6996L188.8 55.9996L190 54.2996L187.5 55.7996L187 54.8996L190.8 52.5996L191.5 53.6996L190.1 55.6996L192.5 55.3996L193.2 56.4996L189.4 58.8996ZM185.3 50.4996L189.5 48.8996L190.6 51.6996L189.8 51.9996L189.1 50.1996L188.4 50.4996L189 52.0996L188.2 52.3996L187.6 50.7996L186.6 51.1996L187.3 52.9996L186.5 53.2996L185.3 50.4996ZM184.2 45.8996L188.5 44.8996L189.2 47.7996L188.4 47.9996L188 46.0996L187.2 46.2996L187.6 47.9996L186.8 48.1996L186.4 46.4996L185.3 46.7996L185.7 48.5996L184.9 48.7996L184.2 45.8996ZM186.1 42.9996C186.4 42.9996 186.6 42.8996 186.8 42.7996C187 42.6996 187.1 42.4996 187.3 42.2996C187.4 42.0996 187.4 41.9996 187.4 41.7996C187.4 41.5996 187.4 41.3996 187.4 41.1996L184.6 41.3996C184.6 41.5996 184.6 41.8996 184.7 41.9996C184.7 42.1996 184.8 42.2996 184.9 42.4996C185 42.6996 185.2 42.7996 185.4 42.8996C185.5 42.9996 185.8 42.9996 186.1 42.9996ZM186.1 44.0996C185.7 44.0996 185.3 44.0996 185 43.8996C184.7 43.6996 184.4 43.4996 184.2 43.2996C184 43.0996 183.9 42.7996 183.9 42.5996C183.8 42.2996 183.8 41.9996 183.8 41.6996L183.7 40.2996L188.1 39.9996L188.2 41.3996C188.2 41.6996 188.2 41.9996 188.2 42.2996C188.2 42.5996 188.1 42.7996 188 43.0996C187.8 43.3996 187.6 43.6996 187.3 43.7996C186.9 43.9996 186.6 44.0996 186.1 44.0996Z" fill="white"/>
</svg>
